<?xml version="1.0" encoding="UTF-8"?>
<svg version="1.1" xmlns="http://www.w3.org/2000/svg" width="225" height="225">
<path d="M0 0 C74.25 0 148.5 0 225 0 C225 74.25 225 148.5 225 225 C150.75 225 76.5 225 0 225 C0 150.75 0 76.5 0 0 Z " fill="#666666" transform="translate(0,0)"/>
<path d="M0 0 C25.41 0 50.82 0 77 0 C77.495 3.465 77.495 3.465 78 7 C78.82435135 9.5076894 78.82435135 9.5076894 79.875 11.8125 C81.31658325 15.23691074 82.53667587 18.61611228 83.5625 22.1875 C84.74386459 26.28715441 86.29212309 30.08611542 88 34 C89.33062184 37.74930426 90.53019354 41.54164246 91.75 45.328125 C93.05363253 49.32049963 94.48011361 53.152115 96.18359375 56.99609375 C98.37813787 62.38270204 100.02937632 67.99524631 101.81640625 73.52734375 C103.0982661 77.45345898 104.50826048 81.21562967 106.18359375 84.99609375 C108.37813787 90.38270204 110.02937632 95.99524631 111.81640625 101.52734375 C113.0982661 105.45345898 114.50826048 109.21562967 116.18359375 112.99609375 C118.04606082 117.56760382 119.47268428 122.30852421 121 127 C121.56101692 128.68799364 122.1233491 130.3755512 122.6875 132.0625 C123.45833333 134.375 124.22916667 136.6875 125 139 C124 140 124 140 121.94039822 140.12304783 C121.02690137 140.12212604 120.11340452 140.12120424 119.17222595 140.12025452 C118.12967872 140.12163201 117.08713148 140.12300951 116.01299191 140.12442875 C114.27587366 140.11903159 114.27587366 140.11903159 112.50366211 140.11352539 C110.65981477 140.11370619 110.65981477 140.11370619 108.77871799 140.11389065 C105.44304334 140.1132656 102.10743022 140.10830655 98.77176666 140.10128021 C95.64573767 140.09560007 92.5197103 140.0953179 89.39367676 140.09460449 C80.24161309 140.08934983 71.0895561 140.07538877 61.9375 140.0625 C41.498125 140.041875 21.05875 140.02125 0 140 C0 93.8 0 47.6 0 0 Z " fill="#181818" transform="translate(0,0)"/>
<path d="M0 0 C1.2485686 0.00138269 1.2485686 0.00138269 2.5223608 0.00279331 C3.94763891 0.00072707 3.94763891 0.00072707 5.40171051 -0.00138092 C6.45673736 0.00221719 7.5117642 0.0058153 8.59876156 0.00952244 C10.27905783 0.00934164 10.27905783 0.00934164 11.99329948 0.00915718 C15.638418 0.00990672 19.28348611 0.01753682 22.92859554 0.02539158 C25.17139314 0.02686087 27.41419109 0.02788166 29.6569891 0.02844334 C37.99622771 0.0336977 46.33545899 0.04765876 54.67468929 0.06054783 C73.29906429 0.08117283 91.92343929 0.10179783 111.11218929 0.12304783 C111.11218929 44.34304783 111.11218929 88.56304783 111.11218929 134.12304783 C105.83218929 134.12304783 100.55218929 134.12304783 95.11218929 134.12304783 C95.11218929 133.46304783 95.11218929 132.80304783 95.11218929 132.12304783 C94.45218929 132.45304783 93.79218929 132.78304783 93.11218929 133.12304783 C90.98801929 133.21479817 88.86089475 133.24055477 86.73474789 133.23657322 C85.75407597 133.23679226 85.75407597 133.23679226 84.75359249 133.23701572 C82.58923702 133.23631818 80.42496726 133.22853323 78.26062679 133.22070408 C76.76132918 133.21883933 75.26203095 133.2174157 73.76273251 133.21641636 C69.81387307 133.21259562 65.86505033 133.20276911 61.91620541 133.19171238 C57.88778842 133.18148874 53.85936551 133.17691669 49.83093929 133.17187595 C41.92467244 133.16114645 34.01843543 133.14407533 26.11218929 133.12304783 C25.80281429 132.02089939 25.49343929 130.91875095 25.17468929 129.78320408 C24.30282417 126.77975694 23.29595349 124.00847305 22.11218929 121.12304783 C21.80281429 120.17429783 21.49343929 119.22554783 21.17468929 118.24804783 C20.13098735 115.03543421 20.13098735 115.03543421 18.61218929 111.68554783 C17.14429593 108.19930109 16.15010366 104.75574811 15.11218929 101.12304783 C14.61718929 99.96804783 14.12218929 98.81304783 13.61218929 97.62304783 C12.1278219 94.1595239 11.14609359 90.74171287 10.11218929 87.12304783 C9.61718929 85.96804783 9.12218929 84.81304783 8.61218929 83.62304783 C7.1278219 80.1595239 6.14609359 76.74171287 5.11218929 73.12304783 C4.61718929 71.96804783 4.12218929 70.81304783 3.61218929 69.62304783 C2.1278219 66.1595239 1.14609359 62.74171287 0.11218929 59.12304783 C-0.38281071 57.96804783 -0.87781071 56.81304783 -1.38781071 55.62304783 C-2.8721781 52.1595239 -3.85390641 48.74171287 -4.88781071 45.12304783 C-5.38281071 43.96804783 -5.87781071 42.81304783 -6.38781071 41.62304783 C-7.8721781 38.1595239 -8.85390641 34.74171287 -9.88781071 31.12304783 C-10.38281071 29.96804783 -10.87781071 28.81304783 -11.38781071 27.62304783 C-12.87340587 24.15665911 -13.89660786 20.75745825 -14.88781071 17.12304783 C-15.93226077 13.78080762 -17.10389203 10.5745344 -18.51281071 7.37304783 C-19.88781071 4.12304783 -19.88781071 4.12304783 -19.88781071 2.12304783 C-18.0644318 2.03216892 -18.0644318 2.03216892 -16.20421696 1.93945408 C-14.61956843 1.85506451 -13.03493369 1.77041573 -11.45031071 1.68554783 C-10.6478693 1.64623142 -9.84542789 1.60691502 -9.01867008 1.5664072 C-5.69629145 1.38416703 -2.9523599 0.19243533 0 0 Z " fill="#212121" transform="translate(113.88781070709229,-0.1230478286743164)"/>
</svg>
