<?xml version="1.0" encoding="UTF-8"?>
<svg version="1.1" xmlns="http://www.w3.org/2000/svg" width="225" height="225">
<path d="M0 0 C74.25 0 148.5 0 225 0 C225 74.25 225 148.5 225 225 C150.75 225 76.5 225 0 225 C0 150.75 0 76.5 0 0 Z " fill="#646464" transform="translate(0,0)"/>
<path d="M0 0 C0.79550735 0.00092179 1.59101469 0.00184359 2.41062832 0.00279331 C3.77293245 0.00072707 3.77293245 0.00072707 5.16275787 -0.00138092 C6.67503542 0.00401624 6.67503542 0.00401624 8.21786404 0.00952244 C9.28850062 0.0094019 10.35913721 0.00928137 11.46221733 0.00915718 C14.94580978 0.00990667 18.42934946 0.01753657 21.9129324 0.02539158 C24.05644613 0.02686088 26.19996022 0.02788166 28.34347439 0.02844334 C36.31324709 0.03369754 44.28301213 0.0476586 52.25277615 0.06054783 C70.05215115 0.08117283 87.85152615 0.10179783 106.19027615 0.12304783 C106.19027615 46.65304783 106.19027615 93.18304783 106.19027615 141.12304783 C71.21027615 141.12304783 36.23027615 141.12304783 0.19027615 141.12304783 C0.19027615 131.55304783 0.19027615 121.98304783 0.19027615 112.12304783 C2.66527615 111.62804783 2.66527615 111.62804783 5.19027615 111.12304783 C6.53428447 110.13744172 7.86634642 109.13546467 9.19027615 108.12304783 C10.38652615 107.62804783 11.58277615 107.13304783 12.81527615 106.62304783 C16.39796084 105.39116055 16.39796084 105.39116055 18.19027615 102.12304783 C21.0794363 101.69067478 21.0794363 101.69067478 24.72933865 101.61132908 C26.03129177 101.57587986 27.3332449 101.54043064 28.67465115 101.5039072 C30.05485424 101.48080551 31.43506271 101.45802319 32.81527615 101.43554783 C34.20332966 101.40238338 35.59135221 101.36789452 36.97933865 101.3320322 C40.38290321 101.24930668 43.78620205 101.18023526 47.19027615 101.12304783 C46.5869949 99.98867283 45.98371365 98.85429783 45.36215115 97.68554783 C44.55480932 96.16474112 43.74752048 94.64390628 42.94027615 93.12304783 C42.54453396 92.37925877 42.14879177 91.6354697 41.7410574 90.86914158 C41.34789333 90.12793064 40.95472927 89.3867197 40.54965115 88.62304783 C40.19354763 87.95273533 39.83744411 87.28242283 39.47054958 86.59179783 C37.67127382 83.12225616 35.93813842 79.61877238 34.19027615 76.12304783 C13.40027615 75.79304783 -7.38972385 75.46304783 -28.80972385 75.12304783 C-29.13972385 74.13304783 -29.46972385 73.14304783 -29.80972385 72.12304783 C-30.63472385 71.29804783 -31.45972385 70.47304783 -32.30972385 69.62304783 C-34.80972385 67.12304783 -34.80972385 67.12304783 -35.80972385 64.12304783 C-36.30472385 63.62804783 -36.79972385 63.13304783 -37.30972385 62.62304783 C-38.80972385 61.12304783 -38.80972385 61.12304783 -39.80972385 58.12304783 C-18.35972385 57.79304783 3.09027615 57.46304783 25.19027615 57.12304783 C17.27027615 56.79304783 9.35027615 56.46304783 1.19027615 56.12304783 C2.18027615 55.13304783 3.17027615 54.14304783 4.19027615 53.12304783 C3.91763943 52.61330418 3.64500271 52.10356052 3.36410427 51.57837009 C2.13736054 49.28189534 0.91377967 46.9837504 -0.30972385 44.68554783 C-0.73898167 43.88310642 -1.16823948 43.08066502 -1.6105051 42.2539072 C-2.01655979 41.49013767 -2.42261448 40.72636814 -2.84097385 39.93945408 C-3.40655003 38.87899876 -3.40655003 38.87899876 -3.98355198 37.79712009 C-4.80972385 36.12304783 -4.80972385 36.12304783 -4.80972385 35.12304783 C1.13027615 34.79304783 7.07027615 34.46304783 13.19027615 34.12304783 C8.01650922 23.03640441 2.71434001 12.03895062 -2.80972385 1.12304783 C-1.80972385 0.12304783 -1.80972385 0.12304783 0 0 Z " fill="#6B6B6B" transform="translate(118.80972385406494,-0.1230478286743164)"/>
<path d="M0 0 C29.37 0 58.74 0 89 0 C89 10.23 89 20.46 89 31 C64.58 31 40.16 31 15 31 C11.04 22.585 11.04 22.585 7 14 C4.69 9.38 2.38 4.76 0 0 Z " fill="#848484" transform="translate(136,0)"/>
</svg>
